<svg width="34" height="34" viewBox="0 0 34 34" fill="none" xmlns="http://www.w3.org/2000/svg">
<path d="M15.5834 24.0833H18.4167V18.4166H24.0834V15.5833H18.4167V9.91665H15.5834V15.5833H9.91671V18.4166H15.5834V24.0833ZM17 31.1666C15.0403 31.1666 13.1987 30.8007 11.475 30.0687C9.75143 29.3132 8.25212 28.2979 6.97712 27.0229C5.70212 25.7479 4.68685 24.2486 3.93129 22.525C3.19935 20.8014 2.83337 18.9597 2.83337 17C2.83337 15.0403 3.19935 13.1986 3.93129 11.475C4.68685 9.75137 5.70212 8.25206 6.97712 6.97706C8.25212 5.70206 9.75143 4.69859 11.475 3.96665C13.1987 3.21109 15.0403 2.83331 17 2.83331C18.9598 2.83331 20.8014 3.21109 22.525 3.96665C24.2487 4.69859 25.748 5.70206 27.023 6.97706C28.298 8.25206 29.3014 9.75137 30.0334 11.475C30.7889 13.1986 31.1667 15.0403 31.1667 17C31.1667 18.9597 30.7889 20.8014 30.0334 22.525C29.3014 24.2486 28.298 25.7479 27.023 27.0229C25.748 28.2979 24.2487 29.3132 22.525 30.0687C20.8014 30.8007 18.9598 31.1666 17 31.1666ZM17 28.3333C20.1639 28.3333 22.8438 27.2354 25.0396 25.0396C27.2355 22.8437 28.3334 20.1639 28.3334 17C28.3334 13.8361 27.2355 11.1562 25.0396 8.9604C22.8438 6.76456 20.1639 5.66665 17 5.66665C13.8362 5.66665 11.1563 6.76456 8.96046 8.9604C6.76462 11.1562 5.66671 13.8361 5.66671 17C5.66671 20.1639 6.76462 22.8437 8.96046 25.0396C11.1563 27.2354 13.8362 28.3333 17 28.3333Z" fill="#DD9037"/>
</svg>
