<svg width="26" height="26" viewBox="0 0 26 26" fill="none" xmlns="http://www.w3.org/2000/svg">
<path d="M11.9167 18.4167H14.0834V14.0834H18.4167V11.9167H14.0834V7.58335H11.9167V11.9167H7.58335V14.0834H11.9167V18.4167ZM13 23.8334C11.5014 23.8334 10.0931 23.5535 8.77502 22.9938C7.45697 22.416 6.31044 21.6396 5.33544 20.6646C4.36044 19.6896 3.58405 18.5431 3.00627 17.225C2.44655 15.907 2.16669 14.4986 2.16669 13C2.16669 11.5014 2.44655 10.0931 3.00627 8.77502C3.58405 7.45696 4.36044 6.31044 5.33544 5.33544C6.31044 4.36044 7.45697 3.59307 8.77502 3.03335C10.0931 2.45558 11.5014 2.16669 13 2.16669C14.4986 2.16669 15.907 2.45558 17.225 3.03335C18.5431 3.59307 19.6896 4.36044 20.6646 5.33544C21.6396 6.31044 22.407 7.45696 22.9667 8.77502C23.5445 10.0931 23.8334 11.5014 23.8334 13C23.8334 14.4986 23.5445 15.907 22.9667 17.225C22.407 18.5431 21.6396 19.6896 20.6646 20.6646C19.6896 21.6396 18.5431 22.416 17.225 22.9938C15.907 23.5535 14.4986 23.8334 13 23.8334ZM13 21.6667C15.4195 21.6667 17.4688 20.8271 19.1479 19.1479C20.8271 17.4688 21.6667 15.4195 21.6667 13C21.6667 10.5806 20.8271 8.53127 19.1479 6.8521C17.4688 5.17294 15.4195 4.33335 13 4.33335C10.5806 4.33335 8.53127 5.17294 6.8521 6.8521C5.17294 8.53127 4.33335 10.5806 4.33335 13C4.33335 15.4195 5.17294 17.4688 6.8521 19.1479C8.53127 20.8271 10.5806 21.6667 13 21.6667Z" fill="white"/>
</svg>
