<svg width="48" height="48" viewBox="0 0 48 48" fill="none" xmlns="http://www.w3.org/2000/svg">
<path d="M17.5833 47.3333L16.65 39.8667C16.1444 39.6722 15.668 39.4389 15.2208 39.1667C14.7736 38.8944 14.3361 38.6028 13.9083 38.2917L6.96665 41.2083L0.549988 30.125L6.55832 25.575C6.51943 25.3028 6.49999 25.0403 6.49999 24.7875V23.2125C6.49999 22.9597 6.51943 22.6972 6.55832 22.425L0.549988 17.875L6.96665 6.79166L13.9083 9.70832C14.3361 9.39721 14.7833 9.10555 15.25 8.83332C15.7167 8.5611 16.1833 8.32777 16.65 8.13332L17.5833 0.666656H30.4167L31.35 8.13332C31.8555 8.32777 32.3319 8.5611 32.7792 8.83332C33.2264 9.10555 33.6639 9.39721 34.0917 9.70832L41.0333 6.79166L47.45 17.875L41.4417 22.425C41.4805 22.6972 41.5 22.9597 41.5 23.2125V24.7875C41.5 25.0403 41.4611 25.3028 41.3833 25.575L47.3917 30.125L40.975 41.2083L34.0917 38.2917C33.6639 38.6028 33.2167 38.8944 32.75 39.1667C32.2833 39.4389 31.8167 39.6722 31.35 39.8667L30.4167 47.3333H17.5833ZM24.1167 32.1667C26.3722 32.1667 28.2972 31.3694 29.8917 29.775C31.4861 28.1805 32.2833 26.2555 32.2833 24C32.2833 21.7444 31.4861 19.8194 29.8917 18.225C28.2972 16.6305 26.3722 15.8333 24.1167 15.8333C21.8222 15.8333 19.8875 16.6305 18.3125 18.225C16.7375 19.8194 15.95 21.7444 15.95 24C15.95 26.2555 16.7375 28.1805 18.3125 29.775C19.8875 31.3694 21.8222 32.1667 24.1167 32.1667Z" fill="#603737"/>
</svg>
